<svg width="36" height="36" viewBox="0 0 36 36" fill="none" xmlns="http://www.w3.org/2000/svg">
<g clip-path="url(#clip0_19_8)">
<path d="M18 36C21.5601 36 25.0402 34.9443 28.0003 32.9665C30.9604 30.9886 33.2675 28.1774 34.6298 24.8883C35.9922 21.5992 36.3488 17.9801 35.6541 14.4884C34.9596 10.9967 33.2453 7.78943 30.7279 5.27209C28.2106 2.75474 25.0033 1.04041 21.5116 0.345873C18.02 -0.348661 14.4008 0.00779875 11.1117 1.37018C7.82262 2.73255 5.01142 5.03964 3.03355 7.99974C1.05568 10.9598 5.37556e-07 14.4399 0 18H9.36C9.36 16.2912 9.86674 14.6207 10.8161 13.1999C11.7655 11.779 13.1149 10.6716 14.6936 10.0177C16.2724 9.36375 18.0096 9.19264 19.6856 9.52604C21.3616 9.8594 22.9011 10.6823 24.1094 11.8906C25.3177 13.0989 26.1406 14.6384 26.474 16.3144C26.8074 17.9904 26.6363 19.7276 25.9823 21.3064C25.3284 22.8851 24.221 24.2345 22.8001 25.1839C21.3793 26.1333 19.7088 26.64 18 26.64V36Z" fill="white"/>
<path d="M0 26.64H9.36V36H0V26.64Z" fill="white"/>
</g>
<defs>
<clipPath id="clip0_19_8">
<rect width="36" height="36" fill="white"/>
</clipPath>
</defs>
</svg>
